<svg width="329" height="96" viewBox="0 0 329 96" fill="none" xmlns="http://www.w3.org/2000/svg">
<path d="M201.771 20.8857L202.673 21.0674L203.547 20.7822L247.967 6.2959L294.904 25.8203L295.916 26.2402L296.986 26.0098L316.568 21.7891V38.3906L317.016 39.1895L325.046 53.4961L313.243 77.4814L293.706 72.0908L292.36 71.7197L291.129 72.377L259.382 89.2959L197.983 80.7266L197.427 80.6484L196.874 80.749L132.929 92.3633L87.7666 72.2676L86.6807 71.7842L85.5244 72.0625L18.3418 88.248L22.2959 67.3896L22.5947 65.8105L21.5918 64.5537L4.18066 42.75L16.0381 20.8467L92.4814 16.8428L93.3135 16.7988L94.0371 16.3857L116.22 3.69043L201.771 20.8857Z" fill="#0B96DB" stroke="#C9EDFF" stroke-width="7"/>
</svg>
