<svg width="130" height="42" viewBox="0 0 130 42" fill="none" xmlns="http://www.w3.org/2000/svg">
<path d="M18.73 2.18457H37.6313C38.576 2.18457 39.3422 2.94991 39.3423 3.89453V22.7959C39.3423 23.7406 38.576 24.5068 37.6313 24.5068H18.73C17.7854 24.5068 17.02 23.7405 17.02 22.7959V3.89453C17.0201 2.94996 17.7854 2.18465 18.73 2.18457Z" fill="#9DFF89" stroke="white" stroke-width="3.42105"/>
<path d="M11.3746 9.88196H30.276C31.2206 9.88196 31.9869 10.6473 31.9869 11.5919V30.4933C31.9869 31.438 31.2207 32.2042 30.276 32.2042H11.3746C10.43 32.2041 9.66467 31.4379 9.66467 30.4933V11.5919C9.66476 10.6473 10.4301 9.88204 11.3746 9.88196Z" fill="#0073DF" stroke="white" stroke-width="3.42105"/>
<rect x="2.77982" y="33.1872" width="20.4408" height="5.47368" fill="#0073DF" stroke="white" stroke-width="0.0855263"/>
<rect x="2.77982" y="17.7925" width="20.4408" height="13.2566" fill="#0B96DB" stroke="white" stroke-width="0.0855263"/>
<path d="M3.4209 17.4937H22.3223C23.2669 17.4937 24.0331 18.259 24.0332 19.2036V38.105C24.0332 39.0497 23.267 39.8159 22.3223 39.8159H3.4209C2.47627 39.8158 1.71094 39.0496 1.71094 38.105V19.2036C1.71102 18.259 2.47632 17.4937 3.4209 17.4937Z" stroke="white" stroke-width="3.42105"/>
<path d="M51.7266 18.3215C50.9329 18.3215 50.2487 18.1938 49.674 17.9384C49.1084 17.6738 48.5884 17.277 48.114 16.7479L49.5098 15.3658C49.8199 15.7215 50.162 15.9998 50.5361 16.2005C50.9192 16.3921 51.3617 16.4879 51.8634 16.4879C52.3196 16.4879 52.6708 16.4058 52.9171 16.2415C53.1726 16.0773 53.3003 15.8493 53.3003 15.5573C53.3003 15.2928 53.2182 15.0784 53.054 14.9142C52.8898 14.75 52.6708 14.6086 52.3971 14.49C52.1326 14.3714 51.8361 14.2573 51.5077 14.1479C51.1884 14.0384 50.8691 13.9152 50.5498 13.7784C50.2305 13.6324 49.934 13.4545 49.6603 13.2447C49.3957 13.0258 49.1813 12.7566 49.0171 12.4373C48.8529 12.1089 48.7708 11.6984 48.7708 11.2058C48.7708 10.6128 48.9122 10.1019 49.195 9.67312C49.4869 9.24435 49.8884 8.92049 50.3992 8.70155C50.9101 8.47348 51.4985 8.35944 52.1645 8.35944C52.8396 8.35944 53.4554 8.47804 54.0119 8.71523C54.5775 8.95242 55.0427 9.27628 55.4077 9.68681L54.0119 11.0689C53.7199 10.7679 53.4234 10.5444 53.1224 10.3984C52.8305 10.2524 52.4975 10.1794 52.1234 10.1794C51.7494 10.1794 51.4529 10.2524 51.234 10.3984C51.015 10.5352 50.9055 10.7359 50.9055 11.0005C50.9055 11.2468 50.9877 11.4475 51.1519 11.6026C51.3161 11.7486 51.5305 11.8763 51.795 11.9858C52.0687 12.0952 52.3652 12.2047 52.6845 12.3142C53.0129 12.4237 53.3368 12.5514 53.6561 12.6973C53.9754 12.8433 54.2673 13.0303 54.5319 13.2584C54.8055 13.4773 55.0245 13.7601 55.1887 14.1068C55.3529 14.4444 55.435 14.864 55.435 15.3658C55.435 16.2872 55.1066 17.0124 54.4498 17.5415C53.7929 18.0615 52.8852 18.3215 51.7266 18.3215ZM56.9404 18.171V8.50997H59.0888V18.171H56.9404ZM58.5962 18.171V16.2826H63.372V18.171H58.5962ZM64.7479 18.171V8.50997H66.8963V18.171H64.7479ZM70.3443 18.171V16.2826H72.739C73.3229 16.2826 73.8338 16.1686 74.2717 15.9405C74.7096 15.7033 75.0471 15.3612 75.2843 14.9142C75.5215 14.4672 75.6401 13.938 75.6401 13.3268C75.6401 12.7156 75.5169 12.191 75.2706 11.7531C75.0334 11.3152 74.6959 10.9777 74.258 10.7405C73.8292 10.5033 73.3229 10.3847 72.739 10.3847H70.2759V8.50997H72.7664C73.4962 8.50997 74.1667 8.62856 74.778 8.86576C75.3983 9.09383 75.9366 9.42681 76.3927 9.8647C76.858 10.2935 77.2138 10.8044 77.4601 11.3973C77.7155 11.9812 77.8432 12.6289 77.8432 13.3405C77.8432 14.0429 77.7155 14.6907 77.4601 15.2837C77.2138 15.8766 76.8625 16.3875 76.4064 16.8163C75.9503 17.2451 75.412 17.578 74.7917 17.8152C74.1804 18.0524 73.5145 18.171 72.7938 18.171H70.3443ZM68.8938 18.171V8.50997H71.0422V18.171H68.8938ZM79.3472 18.171V8.50997H81.4956V18.171H79.3472ZM80.9893 18.171V16.31H86.2851V18.171H80.9893ZM80.9893 14.1342V12.3415H85.8062V14.1342H80.9893ZM80.9893 10.3573V8.50997H86.2167V10.3573H80.9893ZM90.5636 18.3215C89.7699 18.3215 89.0857 18.1938 88.5109 17.9384C87.9453 17.6738 87.4253 17.277 86.9509 16.7479L88.3467 15.3658C88.6569 15.7215 88.999 15.9998 89.373 16.2005C89.7562 16.3921 90.1987 16.4879 90.7004 16.4879C91.1565 16.4879 91.5078 16.4058 91.7541 16.2415C92.0095 16.0773 92.1373 15.8493 92.1373 15.5573C92.1373 15.2928 92.0551 15.0784 91.8909 14.9142C91.7267 14.75 91.5078 14.6086 91.2341 14.49C90.9695 14.3714 90.673 14.2573 90.3446 14.1479C90.0253 14.0384 89.706 13.9152 89.3867 13.7784C89.0674 13.6324 88.7709 13.4545 88.4973 13.2447C88.2327 13.0258 88.0183 12.7566 87.8541 12.4373C87.6899 12.1089 87.6078 11.6984 87.6078 11.2058C87.6078 10.6128 87.7492 10.1019 88.032 9.67312C88.3239 9.24435 88.7253 8.92049 89.2362 8.70155C89.7471 8.47348 90.3355 8.35944 91.0015 8.35944C91.6765 8.35944 92.2923 8.47804 92.8488 8.71523C93.4144 8.95242 93.8797 9.27628 94.2446 9.68681L92.8488 11.0689C92.5569 10.7679 92.2604 10.5444 91.9594 10.3984C91.6674 10.2524 91.3344 10.1794 90.9604 10.1794C90.5864 10.1794 90.2899 10.2524 90.0709 10.3984C89.852 10.5352 89.7425 10.7359 89.7425 11.0005C89.7425 11.2468 89.8246 11.4475 89.9888 11.6026C90.153 11.7486 90.3674 11.8763 90.632 11.9858C90.9057 12.0952 91.2022 12.2047 91.5215 12.3142C91.8499 12.4237 92.1737 12.5514 92.493 12.6973C92.8123 12.8433 93.1043 13.0303 93.3688 13.2584C93.6425 13.4773 93.8615 13.7601 94.0257 14.1068C94.1899 14.4444 94.272 14.864 94.272 15.3658C94.272 16.2872 93.9436 17.0124 93.2867 17.5415C92.6299 18.0615 91.7222 18.3215 90.5636 18.3215ZM95.7774 18.171V8.50997H97.9258V18.171H95.7774ZM101.757 18.171V8.50997H103.919V18.171H101.757ZM97.0637 14.1342V12.2731H102.469V14.1342H97.0637ZM110.522 18.3352C109.792 18.3352 109.117 18.2075 108.496 17.9521C107.885 17.6966 107.347 17.3408 106.882 16.8847C106.416 16.4286 106.056 15.8994 105.801 15.2973C105.545 14.6861 105.417 14.0293 105.417 13.3268C105.417 12.6152 105.545 11.9584 105.801 11.3563C106.056 10.7542 106.412 10.2296 106.868 9.7826C107.324 9.32646 107.858 8.97523 108.469 8.72891C109.089 8.47348 109.764 8.34576 110.494 8.34576C111.215 8.34576 111.881 8.47348 112.492 8.72891C113.113 8.97523 113.651 9.32646 114.107 9.7826C114.572 10.2296 114.933 10.7587 115.188 11.37C115.443 11.9721 115.571 12.6289 115.571 13.3405C115.571 14.0429 115.443 14.6998 115.188 15.311C114.933 15.9131 114.577 16.4422 114.121 16.8984C113.664 17.3454 113.126 17.6966 112.506 17.9521C111.895 18.2075 111.233 18.3352 110.522 18.3352ZM110.494 16.3784C111.069 16.3784 111.571 16.2507 112 15.9952C112.437 15.7398 112.775 15.384 113.012 14.9279C113.249 14.4626 113.368 13.9289 113.368 13.3268C113.368 12.8707 113.3 12.4601 113.163 12.0952C113.026 11.7212 112.83 11.4019 112.574 11.1373C112.319 10.8637 112.013 10.6584 111.657 10.5215C111.311 10.3756 110.923 10.3026 110.494 10.3026C109.92 10.3026 109.413 10.4303 108.975 10.6858C108.547 10.9321 108.214 11.2833 107.976 11.7394C107.739 12.1865 107.621 12.7156 107.621 13.3268C107.621 13.783 107.689 14.198 107.826 14.5721C107.963 14.9461 108.154 15.27 108.401 15.5437C108.656 15.8082 108.962 16.0135 109.317 16.1594C109.673 16.3054 110.066 16.3784 110.494 16.3784ZM119.119 18.171L116.013 8.50997H118.148L120.419 15.9405H119.585L121.802 8.50997H123.485L125.702 15.9405H124.88L127.138 8.50997H129.259L126.153 18.171H124.47L122.239 10.7405H123.033L120.803 18.171H119.119Z" fill="white"/>
<path d="M50.8713 34.6299C50.5549 34.6299 50.3282 34.5615 50.1914 34.4247C50.0546 34.2793 49.9861 34.0099 49.9861 33.6165C49.9861 33.3513 50.0118 33.0135 50.0631 32.603C50.123 32.1839 50.2171 31.6109 50.3453 30.8839C50.5677 29.5411 50.743 28.378 50.8713 27.3944C50.9483 26.7786 50.9868 26.2655 50.9868 25.8549C50.9868 25.4701 50.8457 25.2776 50.5634 25.2776C50.3411 25.2776 50.0717 25.3931 49.7552 25.624C49.4473 25.8464 49.1052 26.2056 48.7289 26.7017C48.6092 26.8642 48.4766 26.9454 48.3312 26.9454C48.2115 26.9454 48.1046 26.8898 48.0105 26.7786C47.925 26.6589 47.8822 26.5263 47.8822 26.3809C47.8822 26.2441 47.9078 26.1072 47.9592 25.9704C48.019 25.825 48.1131 25.6625 48.2414 25.4829C48.6519 24.9099 49.1095 24.4694 49.6141 24.1615C50.1187 23.8451 50.6233 23.6868 51.1279 23.6868C51.5983 23.6868 51.9575 23.8365 52.2055 24.1359C52.4621 24.4352 52.5904 24.8714 52.5904 25.4444C52.5904 25.6753 52.569 25.949 52.5263 26.2655C52.4835 26.5734 52.445 26.8257 52.4108 27.0224C52.3766 27.2191 52.3509 27.3559 52.3338 27.4329C52.8213 26.0388 53.3687 25.0681 53.9759 24.5207C54.5832 23.9648 55.2503 23.6868 55.9773 23.6868C56.5332 23.6868 56.9694 23.8836 57.2858 24.277C57.6108 24.6704 57.7733 25.2263 57.7733 25.9447C57.7733 26.227 57.7348 26.5776 57.6578 26.9967C58.0855 25.8165 58.5858 24.9697 59.1588 24.4566C59.7319 23.9434 60.3904 23.6868 61.1345 23.6868C61.7332 23.6868 62.1907 23.8793 62.5072 24.2642C62.8322 24.649 62.9947 25.1878 62.9947 25.8806C62.9947 26.2569 62.9391 26.7145 62.8279 27.2533L62.0453 30.9224C61.9598 31.35 61.9171 31.7178 61.9171 32.0257C61.9171 32.3849 61.9983 32.6543 62.1608 32.8339C62.3319 33.0135 62.5671 33.1033 62.8664 33.1033C63.1486 33.1033 63.4223 33.0092 63.6875 32.8211C63.9611 32.6329 64.2819 32.3207 64.6496 31.8845C64.7523 31.7648 64.8677 31.7049 64.996 31.7049C65.1072 31.7049 65.1927 31.7563 65.2526 31.8589C65.321 31.9615 65.3552 32.1026 65.3552 32.2822C65.3552 32.6158 65.274 32.8809 65.1115 33.0776C64.6667 33.6165 64.2263 34.0099 63.7901 34.2579C63.3539 34.5059 62.8963 34.6299 62.4174 34.6299C61.6904 34.6299 61.1217 34.4161 60.7111 33.9885C60.3006 33.5523 60.0953 32.9707 60.0953 32.2438C60.0953 31.7392 60.198 31.0079 60.4032 30.05L60.9164 27.7023C60.9335 27.6253 60.9634 27.4885 61.0062 27.2918C61.049 27.0951 61.0832 26.9112 61.1088 26.7401C61.1345 26.5605 61.1473 26.3852 61.1473 26.2142C61.1473 25.9148 61.0875 25.6924 60.9677 25.547C60.8565 25.3931 60.694 25.3161 60.4802 25.3161C60.0782 25.3161 59.6549 25.577 59.2102 26.0987C58.774 26.6118 58.3549 27.4671 57.9529 28.6645C57.5595 29.8618 57.2388 31.4184 56.9907 33.3342C56.9309 33.8474 56.824 34.1938 56.67 34.3734C56.5246 34.5444 56.2852 34.6299 55.9516 34.6299C55.6608 34.6299 55.447 34.5615 55.3102 34.4247C55.1819 34.2878 55.1177 34.0313 55.1177 33.6549C55.1177 33.3043 55.1648 32.8467 55.2588 32.2822C55.3529 31.7092 55.4727 31.0378 55.618 30.2681C56.0115 28.1984 56.2082 26.8642 56.2082 26.2655C56.2082 25.9405 56.144 25.701 56.0157 25.547C55.896 25.3931 55.7121 25.3161 55.4641 25.3161C55.045 25.3161 54.6131 25.5556 54.1684 26.0345C53.7236 26.5049 53.2875 27.3474 52.8598 28.5618C52.4407 29.7678 52.0901 31.4013 51.8078 33.4625C51.748 33.8987 51.6582 34.2023 51.5384 34.3734C51.4273 34.5444 51.2049 34.6299 50.8713 34.6299ZM67.6827 34.6299C67.0925 34.6299 66.558 34.4845 66.0791 34.1938C65.6087 33.903 65.2366 33.4839 64.9629 32.9365C64.6892 32.3806 64.5524 31.7263 64.5524 30.9737C64.5524 29.6737 64.8304 28.472 65.3863 27.3688C65.9422 26.2569 66.7633 25.3674 67.8494 24.7003C68.9356 24.0247 70.2399 23.6868 71.7623 23.6868C72.1557 23.6868 72.5748 23.7168 73.0195 23.7767C73.4728 23.8365 73.8833 23.9263 74.2511 24.0461C74.4906 24.1145 74.6103 24.2855 74.6103 24.5592C74.6103 24.7816 74.5248 24.9911 74.3537 25.1878C74.1912 25.3845 73.9988 25.4829 73.7764 25.4829C73.708 25.4829 73.6567 25.4786 73.6225 25.4701C73.1777 25.3674 72.7971 25.2947 72.4807 25.252C72.1642 25.2007 71.8307 25.175 71.48 25.175C70.3939 25.175 69.4702 25.4401 68.709 25.9704C67.9478 26.4921 67.3791 27.1849 67.0027 28.0487C66.6264 28.9125 66.4383 29.8447 66.4383 30.8454C66.4383 31.5724 66.5794 32.1368 66.8616 32.5388C67.1524 32.9322 67.5287 33.129 67.9906 33.129C68.5123 33.129 68.9698 32.9151 69.3633 32.4875C69.7567 32.0599 70.1159 31.3671 70.4409 30.4092C70.7659 29.4513 71.0866 28.1513 71.4031 26.5092C71.4544 26.2697 71.557 26.1072 71.711 26.0217C71.8649 25.9362 72.0702 25.8934 72.3267 25.8934C72.934 25.8934 73.2376 26.0901 73.2376 26.4836C73.2376 26.552 73.2248 26.6375 73.1991 26.7401C72.9767 27.5697 72.7715 28.4892 72.5833 29.4984C72.4037 30.499 72.3139 31.2602 72.3139 31.7819C72.3139 32.2438 72.3823 32.5816 72.5192 32.7954C72.656 33.0007 72.8656 33.1033 73.1478 33.1033C73.4215 33.1033 73.6823 33.0135 73.9304 32.8339C74.1784 32.6457 74.4906 32.3293 74.8669 31.8845C74.9695 31.7648 75.085 31.7049 75.2133 31.7049C75.3244 31.7049 75.41 31.7563 75.4698 31.8589C75.5383 31.9615 75.5725 32.1026 75.5725 32.2822C75.5725 32.6158 75.4912 32.8809 75.3287 33.0776C74.9096 33.5822 74.4991 33.9671 74.0971 34.2322C73.6952 34.4974 73.2034 34.6299 72.6218 34.6299C72.0231 34.6299 71.5399 34.4589 71.1721 34.1168C70.8044 33.7661 70.5735 33.2743 70.4794 32.6415C69.8465 33.9671 68.9142 34.6299 67.6827 34.6299ZM87.364 31.7049C87.4752 31.7049 87.5607 31.7563 87.6206 31.8589C87.689 31.9615 87.7232 32.1026 87.7232 32.2822C87.7232 32.6158 87.6419 32.8809 87.4794 33.0776C87.0689 33.5737 86.6541 33.9586 86.235 34.2322C85.816 34.4974 85.3199 34.6299 84.7469 34.6299C84.114 34.6299 83.5965 34.4461 83.1946 34.0783C82.7926 33.702 82.4163 33.1204 82.0656 32.3336C81.809 31.7691 81.5952 31.35 81.4242 31.0763C81.2617 30.7941 81.0992 30.5974 80.9367 30.4862C80.7742 30.3665 80.5689 30.2938 80.3209 30.2681L80.1798 31.2174C80.0002 32.4405 79.6495 33.3214 79.1278 33.8602C78.6146 34.399 77.9048 34.6684 76.9982 34.6684C76.4081 34.6684 75.8821 34.5273 75.4202 34.2451C74.9669 33.9543 74.6505 33.5865 74.4709 33.1418C74.411 32.9878 74.3811 32.8211 74.3811 32.6415C74.3811 32.3849 74.441 32.1625 74.5607 31.9743C74.6804 31.7862 74.8344 31.6921 75.0225 31.6921C75.1337 31.6921 75.2278 31.722 75.3048 31.7819C75.3817 31.8332 75.4544 31.9273 75.5229 32.0642C75.788 32.5602 76.0189 32.9066 76.2156 33.1033C76.4209 33.3 76.6732 33.3984 76.9725 33.3984C77.3146 33.3984 77.6054 33.2444 77.8449 32.9365C78.0929 32.6201 78.2683 32.1368 78.3709 31.4868L78.5505 30.2681H78.3452C78.1485 30.2681 77.9946 30.2125 77.8834 30.1013C77.7722 29.9901 77.7166 29.8362 77.7166 29.6395C77.7166 29.4171 77.7722 29.2418 77.8834 29.1135C78.0031 28.9767 78.1485 28.9082 78.3196 28.9082H78.7429C78.8028 28.4892 78.8456 28.1984 78.8712 28.0359L79.2689 25.1493C79.0465 25.1237 78.837 25.1109 78.6403 25.1109C77.9133 25.1109 77.3617 25.2392 76.9854 25.4957C76.609 25.7438 76.4209 26.103 76.4209 26.5734C76.4209 26.7872 76.4423 26.9625 76.485 27.0993C76.5363 27.2276 76.6005 27.373 76.6775 27.5355C76.7117 27.604 76.7288 27.6809 76.7288 27.7665C76.7288 27.9546 76.639 28.1214 76.4594 28.2668C76.2883 28.4036 76.0959 28.472 75.8821 28.472C75.6084 28.472 75.4074 28.3523 75.2791 28.1128C75.0225 27.6595 74.8942 27.172 74.8942 26.6503C74.8942 26.1115 75.0396 25.6197 75.3304 25.175C75.6298 24.7303 76.0788 24.3753 76.6775 24.1102C77.2761 23.8365 78.016 23.6997 78.8969 23.6997C79.2817 23.6997 79.6324 23.7211 79.9488 23.7638C80.2738 23.8066 80.6288 23.8878 81.0137 24.0076C81.4327 24.1359 81.6423 24.3753 81.6423 24.726C81.6423 25.1964 81.4413 25.4316 81.0393 25.4316L80.539 28.8826C81.5396 28.7799 82.3521 28.3523 82.9765 27.5997C83.6094 26.8385 84.1354 25.8079 84.5544 24.5079C84.6314 24.2684 84.7597 24.0845 84.9393 23.9563C85.1275 23.828 85.3627 23.7638 85.6449 23.7638C85.8844 23.7638 86.0683 23.8194 86.1965 23.9306C86.3334 24.0332 86.4018 24.1829 86.4018 24.3796C86.4018 24.4395 86.3847 24.5378 86.3505 24.6747C85.9229 26.0859 85.3113 27.2063 84.516 28.0359C83.7206 28.8655 82.8525 29.4171 81.9117 29.6908C82.2367 29.7678 82.5018 29.8832 82.7071 30.0372C82.9209 30.1911 83.1005 30.3836 83.2459 30.6145C83.3913 30.8368 83.5581 31.149 83.7462 31.551C84.0113 32.1155 84.2594 32.5174 84.4903 32.7569C84.7212 32.9878 84.9906 33.1033 85.2985 33.1033C85.5722 33.1033 85.8331 33.0135 86.0811 32.8339C86.3291 32.6457 86.6413 32.3293 87.0176 31.8845C87.1202 31.7648 87.2357 31.7049 87.364 31.7049ZM95.8763 32.2309C96.0046 32.1796 96.1115 32.154 96.197 32.154C96.3339 32.154 96.4365 32.2053 96.5049 32.3079C96.5733 32.4105 96.6075 32.5431 96.6075 32.7056C96.6075 32.9622 96.5434 33.1803 96.4151 33.3599C96.2954 33.5395 96.0858 33.702 95.7865 33.8474C95.2819 34.0868 94.6276 34.2793 93.8237 34.4247C93.0197 34.5615 92.2286 34.6299 91.4503 34.6299C90.3727 34.6299 89.4704 34.5102 88.7434 34.2707C88.0164 34.0227 87.4733 33.6849 87.1141 33.2572C86.7635 32.8296 86.5881 32.3464 86.5881 31.8076C86.5881 31.072 86.8233 30.4477 87.2937 29.9345C87.7727 29.4128 88.474 29.0365 89.3977 28.8056C88.8931 28.6602 88.5039 28.4036 88.2302 28.0359C87.9651 27.6681 87.8325 27.2576 87.8325 26.8043C87.8325 26.1885 88.025 25.6454 88.4098 25.175C88.8033 24.6961 89.3292 24.3283 89.9878 24.0717C90.6464 23.8151 91.369 23.6868 92.1559 23.6868C93.2164 23.6868 94.0118 23.9178 94.5421 24.3796C95.0723 24.8329 95.3375 25.423 95.3375 26.15C95.3375 26.6546 95.2434 27.0651 95.0552 27.3816C94.8756 27.6895 94.6148 27.8434 94.2727 27.8434C94.0332 27.8434 93.845 27.7921 93.7082 27.6895C93.5714 27.5783 93.5029 27.4158 93.5029 27.202C93.5029 27.0566 93.5243 26.8984 93.5671 26.7273C93.6098 26.4451 93.6312 26.2526 93.6312 26.15C93.6312 25.8421 93.5158 25.5941 93.2848 25.4059C93.0539 25.2092 92.669 25.1109 92.1302 25.1109C91.4033 25.1109 90.8217 25.2648 90.3855 25.5727C89.9493 25.8806 89.7312 26.2954 89.7312 26.8171C89.7312 27.2191 89.8937 27.5526 90.2187 27.8178C90.5523 28.0743 91.0911 28.2155 91.8352 28.2411C92.0233 28.2497 92.1559 28.2924 92.2329 28.3694C92.3098 28.4464 92.3483 28.5747 92.3483 28.7543C92.3483 29.3188 92.0917 29.6053 91.5786 29.6138C90.8687 29.6309 90.2786 29.7293 89.8082 29.9089C89.3464 30.0885 89.0085 30.3194 88.7947 30.6017C88.5894 30.8753 88.4868 31.1704 88.4868 31.4868C88.4868 32.0171 88.7348 32.4191 89.2309 32.6928C89.7269 32.9579 90.5138 33.0905 91.5914 33.0905C92.3013 33.0905 93.0496 33.0092 93.8365 32.8467C94.6319 32.6757 95.3118 32.4704 95.8763 32.2309ZM107.699 31.7049C107.81 31.7049 107.895 31.7563 107.955 31.8589C108.024 31.9615 108.058 32.1026 108.058 32.2822C108.058 32.6158 107.977 32.8809 107.814 33.0776C107.404 33.5737 106.989 33.9586 106.57 34.2322C106.151 34.4974 105.655 34.6299 105.082 34.6299C104.526 34.6299 104.051 34.4803 103.658 34.1809C103.273 33.8816 102.905 33.3684 102.554 32.6415C102.272 32.0599 102.05 31.6322 101.887 31.3586C101.725 31.0763 101.562 30.8753 101.4 30.7556C101.246 30.6359 101.053 30.5632 100.822 30.5375C100.788 30.7171 100.69 31.2816 100.527 32.2309C100.459 32.6586 100.416 32.9194 100.399 33.0135C100.314 33.5352 100.143 33.9372 99.8859 34.2194C99.6294 34.4931 99.2402 34.6299 98.7185 34.6299C98.1455 34.6299 97.6366 34.4632 97.1919 34.1296C96.7557 33.7875 96.4178 33.3171 96.1784 32.7184C95.9389 32.1112 95.8192 31.4227 95.8192 30.653C95.8192 29.2161 96.0672 27.976 96.5632 26.9326C97.0678 25.8892 97.7692 25.0938 98.6672 24.5464C99.5738 23.9905 100.617 23.7125 101.797 23.7125C102.619 23.7125 103.307 23.8365 103.863 24.0845C104.419 24.3326 104.829 24.6747 105.094 25.1109C105.368 25.547 105.505 26.0388 105.505 26.5862C105.505 27.0651 105.39 27.5355 105.159 27.9974C104.936 28.4507 104.598 28.8526 104.145 29.2033C103.692 29.554 103.14 29.8148 102.49 29.9859C102.901 30.097 103.217 30.2767 103.44 30.5247C103.662 30.7727 103.884 31.1362 104.107 31.6151C104.346 32.1283 104.581 32.5046 104.812 32.7441C105.052 32.9836 105.325 33.1033 105.633 33.1033C105.907 33.1033 106.168 33.0135 106.416 32.8339C106.664 32.6457 106.976 32.3293 107.352 31.8845C107.455 31.7648 107.57 31.7049 107.699 31.7049ZM99.0521 30.5247C98.7613 30.5247 98.5603 30.4563 98.4491 30.3194C98.3465 30.1826 98.2951 30.0286 98.2951 29.8576C98.2951 29.6523 98.3593 29.4898 98.4876 29.3701C98.6244 29.2503 98.7784 29.1905 98.9494 29.1905H99.2701C99.407 28.3523 99.5353 27.6296 99.655 27.0224C99.7662 26.4665 100.125 26.1885 100.733 26.1885C101.22 26.1885 101.464 26.4066 101.464 26.8428C101.464 26.9368 101.46 27.0095 101.451 27.0609L101.066 29.1905C101.528 29.1648 101.947 29.0536 102.323 28.8569C102.708 28.6602 103.012 28.3865 103.234 28.0359C103.465 27.6852 103.581 27.2875 103.581 26.8428C103.581 26.304 103.397 25.8806 103.029 25.5727C102.661 25.2648 102.122 25.1109 101.413 25.1109C100.574 25.1109 99.8389 25.3204 99.206 25.7395C98.5817 26.15 98.0942 26.7658 97.7435 27.5868C97.3928 28.3993 97.2175 29.3915 97.2175 30.5632C97.2175 31.1105 97.2731 31.5809 97.3843 31.9743C97.4955 32.3678 97.6323 32.6628 97.7948 32.8595C97.9573 33.0563 98.1113 33.1546 98.2567 33.1546C98.3678 33.1546 98.4576 33.099 98.5261 32.9878C98.603 32.8767 98.6629 32.697 98.7057 32.449L99.0521 30.5247Z" fill="white"/>
</svg>
