<svg width="152" height="48" viewBox="0 0 152 48" fill="none" xmlns="http://www.w3.org/2000/svg">
<path d="M21.8999 2H43.9995C45.1041 2 45.9995 2.89543 45.9995 4V26.0996C45.9995 27.2042 45.1041 28.0996 43.9995 28.0996H21.8999C20.7953 28.0996 19.8999 27.2042 19.8999 26.0996V4C19.8999 2.89543 20.7953 2 21.8999 2Z" fill="#9DFF89" stroke="white" stroke-width="4"/>
<path d="M13.3 11H35.3997C36.5042 11 37.3997 11.8954 37.3997 13V35.0996C37.3997 36.2042 36.5042 37.0996 35.3997 37.0996H13.3C12.1955 37.0996 11.3 36.2042 11.3 35.0996V13C11.3001 11.8954 12.1955 11 13.3 11Z" fill="#0073DF" stroke="white" stroke-width="4"/>
<rect x="3.24995" y="38.25" width="23.9" height="6.4" fill="#0073DF" stroke="white" stroke-width="0.1"/>
<rect x="3.24995" y="20.25" width="23.9" height="15.5" fill="#0B96DB" stroke="white" stroke-width="0.1"/>
<path d="M4 19.8999H26.0996C27.2042 19.8999 28.0996 20.7953 28.0996 21.8999V43.9995C28.0996 45.1041 27.2042 45.9995 26.0996 45.9995H4C2.89543 45.9995 2 45.1041 2 43.9995V21.8999C2 20.7953 2.89543 19.8999 4 19.8999Z" stroke="white" stroke-width="4"/>
<path d="M60.48 20.176C59.552 20.176 58.752 20.0267 58.08 19.728C57.4187 19.4187 56.8107 18.9547 56.256 18.336L57.888 16.72C58.2507 17.136 58.6507 17.4613 59.088 17.696C59.536 17.92 60.0533 18.032 60.64 18.032C61.1733 18.032 61.584 17.936 61.872 17.744C62.1707 17.552 62.32 17.2853 62.32 16.944C62.32 16.6347 62.224 16.384 62.032 16.192C61.84 16 61.584 15.8347 61.264 15.696C60.9547 15.5573 60.608 15.424 60.224 15.296C59.8507 15.168 59.4773 15.024 59.104 14.864C58.7307 14.6933 58.384 14.4853 58.064 14.24C57.7547 13.984 57.504 13.6693 57.312 13.296C57.12 12.912 57.024 12.432 57.024 11.856C57.024 11.1627 57.1893 10.5653 57.52 10.064C57.8613 9.56267 58.3307 9.184 58.928 8.928C59.5253 8.66133 60.2133 8.528 60.992 8.528C61.7813 8.528 62.5013 8.66667 63.152 8.944C63.8133 9.22133 64.3573 9.6 64.784 10.08L63.152 11.696C62.8107 11.344 62.464 11.0827 62.112 10.912C61.7707 10.7413 61.3813 10.656 60.944 10.656C60.5067 10.656 60.16 10.7413 59.904 10.912C59.648 11.072 59.52 11.3067 59.52 11.616C59.52 11.904 59.616 12.1387 59.808 12.32C60 12.4907 60.2507 12.64 60.56 12.768C60.88 12.896 61.2267 13.024 61.6 13.152C61.984 13.28 62.3627 13.4293 62.736 13.6C63.1093 13.7707 63.4507 13.9893 63.76 14.256C64.08 14.512 64.336 14.8427 64.528 15.248C64.72 15.6427 64.816 16.1333 64.816 16.72C64.816 17.7973 64.432 18.6453 63.664 19.264C62.896 19.872 61.8347 20.176 60.48 20.176ZM66.5761 20V8.704H69.0881V20H66.5761ZM68.5121 20V17.792H74.0961V20H68.5121ZM75.7049 20V8.704H78.2169V20H75.7049ZM82.2484 20V17.792H85.0484C85.731 17.792 86.3284 17.6587 86.8404 17.392C87.3524 17.1147 87.747 16.7147 88.0244 16.192C88.3017 15.6693 88.4404 15.0507 88.4404 14.336C88.4404 13.6213 88.2964 13.008 88.0084 12.496C87.731 11.984 87.3364 11.5893 86.8244 11.312C86.323 11.0347 85.731 10.896 85.0484 10.896H82.1684V8.704H85.0804C85.9337 8.704 86.7177 8.84267 87.4324 9.12C88.1577 9.38667 88.787 9.776 89.3204 10.288C89.8644 10.7893 90.2804 11.3867 90.5684 12.08C90.867 12.7627 91.0164 13.52 91.0164 14.352C91.0164 15.1733 90.867 15.9307 90.5684 16.624C90.2804 17.3173 89.8697 17.9147 89.3364 18.416C88.803 18.9173 88.1737 19.3067 87.4484 19.584C86.7337 19.8613 85.955 20 85.1124 20H82.2484ZM80.5524 20V8.704H83.0644V20H80.5524ZM92.7749 20V8.704H95.2869V20H92.7749ZM94.6949 20V17.824H100.887V20H94.6949ZM94.6949 15.28V13.184H100.327V15.28H94.6949ZM94.6949 10.864V8.704H100.807V10.864H94.6949ZM105.889 20.176C104.961 20.176 104.161 20.0267 103.489 19.728C102.828 19.4187 102.22 18.9547 101.665 18.336L103.297 16.72C103.66 17.136 104.06 17.4613 104.497 17.696C104.945 17.92 105.463 18.032 106.049 18.032C106.583 18.032 106.993 17.936 107.281 17.744C107.58 17.552 107.729 17.2853 107.729 16.944C107.729 16.6347 107.633 16.384 107.441 16.192C107.249 16 106.993 15.8347 106.673 15.696C106.364 15.5573 106.017 15.424 105.633 15.296C105.26 15.168 104.887 15.024 104.513 14.864C104.14 14.6933 103.793 14.4853 103.473 14.24C103.164 13.984 102.913 13.6693 102.721 13.296C102.529 12.912 102.433 12.432 102.433 11.856C102.433 11.1627 102.599 10.5653 102.929 10.064C103.271 9.56267 103.74 9.184 104.337 8.928C104.935 8.66133 105.623 8.528 106.401 8.528C107.191 8.528 107.911 8.66667 108.561 8.944C109.223 9.22133 109.767 9.6 110.193 10.08L108.561 11.696C108.22 11.344 107.873 11.0827 107.521 10.912C107.18 10.7413 106.791 10.656 106.353 10.656C105.916 10.656 105.569 10.7413 105.313 10.912C105.057 11.072 104.929 11.3067 104.929 11.616C104.929 11.904 105.025 12.1387 105.217 12.32C105.409 12.4907 105.66 12.64 105.969 12.768C106.289 12.896 106.636 13.024 107.009 13.152C107.393 13.28 107.772 13.4293 108.145 13.6C108.519 13.7707 108.86 13.9893 109.169 14.256C109.489 14.512 109.745 14.8427 109.937 15.248C110.129 15.6427 110.225 16.1333 110.225 16.72C110.225 17.7973 109.841 18.6453 109.073 19.264C108.305 19.872 107.244 20.176 105.889 20.176ZM111.985 20V8.704H114.497V20H111.985ZM118.977 20V8.704H121.505V20H118.977ZM113.489 15.28V13.104H119.809V15.28H113.489ZM129.225 20.192C128.372 20.192 127.582 20.0427 126.857 19.744C126.142 19.4453 125.513 19.0293 124.969 18.496C124.425 17.9627 124.004 17.344 123.705 16.64C123.406 15.9253 123.257 15.1573 123.257 14.336C123.257 13.504 123.406 12.736 123.705 12.032C124.004 11.328 124.42 10.7147 124.953 10.192C125.486 9.65867 126.11 9.248 126.825 8.96C127.55 8.66133 128.34 8.512 129.193 8.512C130.036 8.512 130.814 8.66133 131.529 8.96C132.254 9.248 132.884 9.65867 133.417 10.192C133.961 10.7147 134.382 11.3333 134.681 12.048C134.98 12.752 135.129 13.52 135.129 14.352C135.129 15.1733 134.98 15.9413 134.681 16.656C134.382 17.36 133.966 17.9787 133.433 18.512C132.9 19.0347 132.27 19.4453 131.545 19.744C130.83 20.0427 130.057 20.192 129.225 20.192ZM129.193 17.904C129.865 17.904 130.452 17.7547 130.953 17.456C131.465 17.1573 131.86 16.7413 132.137 16.208C132.414 15.664 132.553 15.04 132.553 14.336C132.553 13.8027 132.473 13.3227 132.313 12.896C132.153 12.4587 131.924 12.0853 131.625 11.776C131.326 11.456 130.969 11.216 130.553 11.056C130.148 10.8853 129.694 10.8 129.193 10.8C128.521 10.8 127.929 10.9493 127.417 11.248C126.916 11.536 126.526 11.9467 126.249 12.48C125.972 13.0027 125.833 13.6213 125.833 14.336C125.833 14.8693 125.913 15.3547 126.073 15.792C126.233 16.2293 126.457 16.608 126.745 16.928C127.044 17.2373 127.401 17.4773 127.817 17.648C128.233 17.8187 128.692 17.904 129.193 17.904ZM139.278 20L135.646 8.704H138.142L140.798 17.392H139.822L142.414 8.704H144.382L146.974 17.392H146.014L148.654 8.704H151.134L147.502 20H145.534L142.926 11.312H143.854L141.246 20H139.278Z" fill="#0B96DB"/>
<path d="M59.48 40.075C59.11 40.075 58.845 39.995 58.685 39.835C58.525 39.665 58.445 39.35 58.445 38.89C58.445 38.58 58.475 38.185 58.535 37.705C58.605 37.215 58.715 36.545 58.865 35.695C59.125 34.125 59.33 32.765 59.48 31.615C59.57 30.895 59.615 30.295 59.615 29.815C59.615 29.365 59.45 29.14 59.12 29.14C58.86 29.14 58.545 29.275 58.175 29.545C57.815 29.805 57.415 30.225 56.975 30.805C56.835 30.995 56.68 31.09 56.51 31.09C56.37 31.09 56.245 31.025 56.135 30.895C56.035 30.755 55.985 30.6 55.985 30.43C55.985 30.27 56.015 30.11 56.075 29.95C56.145 29.78 56.255 29.59 56.405 29.38C56.885 28.71 57.42 28.195 58.01 27.835C58.6 27.465 59.19 27.28 59.78 27.28C60.33 27.28 60.75 27.455 61.04 27.805C61.34 28.155 61.49 28.665 61.49 29.335C61.49 29.605 61.465 29.925 61.415 30.295C61.365 30.655 61.32 30.95 61.28 31.18C61.24 31.41 61.21 31.57 61.19 31.66C61.76 30.03 62.4 28.895 63.11 28.255C63.82 27.605 64.6 27.28 65.45 27.28C66.1 27.28 66.61 27.51 66.98 27.97C67.36 28.43 67.55 29.08 67.55 29.92C67.55 30.25 67.505 30.66 67.415 31.15C67.915 29.77 68.5 28.78 69.17 28.18C69.84 27.58 70.61 27.28 71.48 27.28C72.18 27.28 72.715 27.505 73.085 27.955C73.465 28.405 73.655 29.035 73.655 29.845C73.655 30.285 73.59 30.82 73.46 31.45L72.545 35.74C72.445 36.24 72.395 36.67 72.395 37.03C72.395 37.45 72.49 37.765 72.68 37.975C72.88 38.185 73.155 38.29 73.505 38.29C73.835 38.29 74.155 38.18 74.465 37.96C74.785 37.74 75.16 37.375 75.59 36.865C75.71 36.725 75.845 36.655 75.995 36.655C76.125 36.655 76.225 36.715 76.295 36.835C76.375 36.955 76.415 37.12 76.415 37.33C76.415 37.72 76.32 38.03 76.13 38.26C75.61 38.89 75.095 39.35 74.585 39.64C74.075 39.93 73.54 40.075 72.98 40.075C72.13 40.075 71.465 39.825 70.985 39.325C70.505 38.815 70.265 38.135 70.265 37.285C70.265 36.695 70.385 35.84 70.625 34.72L71.225 31.975C71.245 31.885 71.28 31.725 71.33 31.495C71.38 31.265 71.42 31.05 71.45 30.85C71.48 30.64 71.495 30.435 71.495 30.235C71.495 29.885 71.425 29.625 71.285 29.455C71.155 29.275 70.965 29.185 70.715 29.185C70.245 29.185 69.75 29.49 69.23 30.1C68.72 30.7 68.23 31.7 67.76 33.1C67.3 34.5 66.925 36.32 66.635 38.56C66.565 39.16 66.44 39.565 66.26 39.775C66.09 39.975 65.81 40.075 65.42 40.075C65.08 40.075 64.83 39.995 64.67 39.835C64.52 39.675 64.445 39.375 64.445 38.935C64.445 38.525 64.5 37.99 64.61 37.33C64.72 36.66 64.86 35.875 65.03 34.975C65.49 32.555 65.72 30.995 65.72 30.295C65.72 29.915 65.645 29.635 65.495 29.455C65.355 29.275 65.14 29.185 64.85 29.185C64.36 29.185 63.855 29.465 63.335 30.025C62.815 30.575 62.305 31.56 61.805 32.98C61.315 34.39 60.905 36.3 60.575 38.71C60.505 39.22 60.4 39.575 60.26 39.775C60.13 39.975 59.87 40.075 59.48 40.075ZM79.1363 40.075C78.4463 40.075 77.8213 39.905 77.2613 39.565C76.7113 39.225 76.2763 38.735 75.9563 38.095C75.6363 37.445 75.4763 36.68 75.4763 35.8C75.4763 34.28 75.8013 32.875 76.4513 31.585C77.1013 30.285 78.0613 29.245 79.3313 28.465C80.6013 27.675 82.1263 27.28 83.9063 27.28C84.3663 27.28 84.8563 27.315 85.3763 27.385C85.9063 27.455 86.3863 27.56 86.8163 27.7C87.0963 27.78 87.2363 27.98 87.2363 28.3C87.2363 28.56 87.1363 28.805 86.9363 29.035C86.7463 29.265 86.5213 29.38 86.2613 29.38C86.1813 29.38 86.1213 29.375 86.0813 29.365C85.5613 29.245 85.1163 29.16 84.7463 29.11C84.3763 29.05 83.9863 29.02 83.5763 29.02C82.3063 29.02 81.2263 29.33 80.3363 29.95C79.4463 30.56 78.7813 31.37 78.3413 32.38C77.9013 33.39 77.6813 34.48 77.6813 35.65C77.6813 36.5 77.8463 37.16 78.1763 37.63C78.5163 38.09 78.9563 38.32 79.4963 38.32C80.1063 38.32 80.6413 38.07 81.1013 37.57C81.5613 37.07 81.9813 36.26 82.3613 35.14C82.7413 34.02 83.1163 32.5 83.4863 30.58C83.5463 30.3 83.6663 30.11 83.8463 30.01C84.0263 29.91 84.2663 29.86 84.5663 29.86C85.2763 29.86 85.6313 30.09 85.6313 30.55C85.6313 30.63 85.6163 30.73 85.5863 30.85C85.3263 31.82 85.0863 32.895 84.8663 34.075C84.6563 35.245 84.5513 36.135 84.5513 36.745C84.5513 37.285 84.6313 37.68 84.7913 37.93C84.9513 38.17 85.1963 38.29 85.5263 38.29C85.8463 38.29 86.1513 38.185 86.4413 37.975C86.7313 37.755 87.0963 37.385 87.5363 36.865C87.6563 36.725 87.7913 36.655 87.9413 36.655C88.0713 36.655 88.1713 36.715 88.2413 36.835C88.3213 36.955 88.3613 37.12 88.3613 37.33C88.3613 37.72 88.2663 38.03 88.0763 38.26C87.5863 38.85 87.1063 39.3 86.6363 39.61C86.1663 39.92 85.5913 40.075 84.9113 40.075C84.2113 40.075 83.6463 39.875 83.2163 39.475C82.7863 39.065 82.5163 38.49 82.4063 37.75C81.6663 39.3 80.5763 40.075 79.1363 40.075ZM102.148 36.655C102.278 36.655 102.378 36.715 102.448 36.835C102.528 36.955 102.568 37.12 102.568 37.33C102.568 37.72 102.473 38.03 102.283 38.26C101.803 38.84 101.318 39.29 100.828 39.61C100.338 39.92 99.7583 40.075 99.0883 40.075C98.3483 40.075 97.7433 39.86 97.2733 39.43C96.8033 38.99 96.3633 38.31 95.9533 37.39C95.6533 36.73 95.4033 36.24 95.2033 35.92C95.0133 35.59 94.8233 35.36 94.6333 35.23C94.4433 35.09 94.2033 35.005 93.9133 34.975L93.7483 36.085C93.5383 37.515 93.1283 38.545 92.5183 39.175C91.9183 39.805 91.0883 40.12 90.0283 40.12C89.3383 40.12 88.7233 39.955 88.1833 39.625C87.6533 39.285 87.2833 38.855 87.0733 38.335C87.0033 38.155 86.9683 37.96 86.9683 37.75C86.9683 37.45 87.0383 37.19 87.1783 36.97C87.3183 36.75 87.4983 36.64 87.7183 36.64C87.8483 36.64 87.9583 36.675 88.0483 36.745C88.1383 36.805 88.2233 36.915 88.3033 37.075C88.6133 37.655 88.8833 38.06 89.1133 38.29C89.3533 38.52 89.6483 38.635 89.9983 38.635C90.3983 38.635 90.7383 38.455 91.0183 38.095C91.3083 37.725 91.5133 37.16 91.6333 36.4L91.8433 34.975H91.6033C91.3733 34.975 91.1933 34.91 91.0633 34.78C90.9333 34.65 90.8683 34.47 90.8683 34.24C90.8683 33.98 90.9333 33.775 91.0633 33.625C91.2033 33.465 91.3733 33.385 91.5733 33.385H92.0683C92.1383 32.895 92.1883 32.555 92.2183 32.365L92.6833 28.99C92.4233 28.96 92.1783 28.945 91.9483 28.945C91.0983 28.945 90.4533 29.095 90.0133 29.395C89.5733 29.685 89.3533 30.105 89.3533 30.655C89.3533 30.905 89.3783 31.11 89.4283 31.27C89.4883 31.42 89.5633 31.59 89.6533 31.78C89.6933 31.86 89.7133 31.95 89.7133 32.05C89.7133 32.27 89.6083 32.465 89.3983 32.635C89.1983 32.795 88.9733 32.875 88.7233 32.875C88.4033 32.875 88.1683 32.735 88.0183 32.455C87.7183 31.925 87.5683 31.355 87.5683 30.745C87.5683 30.115 87.7383 29.54 88.0783 29.02C88.4283 28.5 88.9533 28.085 89.6533 27.775C90.3533 27.455 91.2183 27.295 92.2483 27.295C92.6983 27.295 93.1083 27.32 93.4783 27.37C93.8583 27.42 94.2733 27.515 94.7233 27.655C95.2133 27.805 95.4583 28.085 95.4583 28.495C95.4583 29.045 95.2233 29.32 94.7533 29.32L94.1683 33.355C95.3383 33.235 96.2883 32.735 97.0183 31.855C97.7583 30.965 98.3733 29.76 98.8633 28.24C98.9533 27.96 99.1033 27.745 99.3133 27.595C99.5333 27.445 99.8083 27.37 100.138 27.37C100.418 27.37 100.633 27.435 100.783 27.565C100.943 27.685 101.023 27.86 101.023 28.09C101.023 28.16 101.003 28.275 100.963 28.435C100.463 30.085 99.7483 31.395 98.8183 32.365C97.8883 33.335 96.8733 33.98 95.7733 34.3C96.1533 34.39 96.4633 34.525 96.7033 34.705C96.9533 34.885 97.1633 35.11 97.3333 35.38C97.5033 35.64 97.6983 36.005 97.9183 36.475C98.2283 37.135 98.5183 37.605 98.7883 37.885C99.0583 38.155 99.3733 38.29 99.7333 38.29C100.053 38.29 100.358 38.185 100.648 37.975C100.938 37.755 101.303 37.385 101.743 36.865C101.863 36.725 101.998 36.655 102.148 36.655ZM112.101 37.27C112.251 37.21 112.376 37.18 112.476 37.18C112.636 37.18 112.756 37.24 112.836 37.36C112.916 37.48 112.956 37.635 112.956 37.825C112.956 38.125 112.881 38.38 112.731 38.59C112.591 38.8 112.346 38.99 111.996 39.16C111.406 39.44 110.641 39.665 109.701 39.835C108.761 39.995 107.836 40.075 106.926 40.075C105.666 40.075 104.611 39.935 103.761 39.655C102.911 39.365 102.276 38.97 101.856 38.47C101.446 37.97 101.241 37.405 101.241 36.775C101.241 35.915 101.516 35.185 102.066 34.585C102.626 33.975 103.446 33.535 104.526 33.265C103.936 33.095 103.481 32.795 103.161 32.365C102.851 31.935 102.696 31.455 102.696 30.925C102.696 30.205 102.921 29.57 103.371 29.02C103.831 28.46 104.446 28.03 105.216 27.73C105.986 27.43 106.831 27.28 107.751 27.28C108.991 27.28 109.921 27.55 110.541 28.09C111.161 28.62 111.471 29.31 111.471 30.16C111.471 30.75 111.361 31.23 111.141 31.6C110.931 31.96 110.626 32.14 110.226 32.14C109.946 32.14 109.726 32.08 109.566 31.96C109.406 31.83 109.326 31.64 109.326 31.39C109.326 31.22 109.351 31.035 109.401 30.835C109.451 30.505 109.476 30.28 109.476 30.16C109.476 29.8 109.341 29.51 109.071 29.29C108.801 29.06 108.351 28.945 107.721 28.945C106.871 28.945 106.191 29.125 105.681 29.485C105.171 29.845 104.916 30.33 104.916 30.94C104.916 31.41 105.106 31.8 105.486 32.11C105.876 32.41 106.506 32.575 107.376 32.605C107.596 32.615 107.751 32.665 107.841 32.755C107.931 32.845 107.976 32.995 107.976 33.205C107.976 33.865 107.676 34.2 107.076 34.21C106.246 34.23 105.556 34.345 105.006 34.555C104.466 34.765 104.071 35.035 103.821 35.365C103.581 35.685 103.461 36.03 103.461 36.4C103.461 37.02 103.751 37.49 104.331 37.81C104.911 38.12 105.831 38.275 107.091 38.275C107.921 38.275 108.796 38.18 109.716 37.99C110.646 37.79 111.441 37.55 112.101 37.27ZM125.924 36.655C126.054 36.655 126.154 36.715 126.224 36.835C126.304 36.955 126.344 37.12 126.344 37.33C126.344 37.72 126.249 38.03 126.059 38.26C125.579 38.84 125.094 39.29 124.604 39.61C124.114 39.92 123.534 40.075 122.864 40.075C122.214 40.075 121.659 39.9 121.199 39.55C120.749 39.2 120.319 38.6 119.909 37.75C119.579 37.07 119.319 36.57 119.129 36.25C118.939 35.92 118.749 35.685 118.559 35.545C118.379 35.405 118.154 35.32 117.884 35.29C117.844 35.5 117.729 36.16 117.539 37.27C117.459 37.77 117.409 38.075 117.389 38.185C117.289 38.795 117.089 39.265 116.789 39.595C116.489 39.915 116.034 40.075 115.424 40.075C114.754 40.075 114.159 39.88 113.639 39.49C113.129 39.09 112.734 38.54 112.454 37.84C112.174 37.13 112.034 36.325 112.034 35.425C112.034 33.745 112.324 32.295 112.904 31.075C113.494 29.855 114.314 28.925 115.364 28.285C116.424 27.635 117.644 27.31 119.024 27.31C119.984 27.31 120.789 27.455 121.439 27.745C122.089 28.035 122.569 28.435 122.879 28.945C123.199 29.455 123.359 30.03 123.359 30.67C123.359 31.23 123.224 31.78 122.954 32.32C122.694 32.85 122.299 33.32 121.769 33.73C121.239 34.14 120.594 34.445 119.834 34.645C120.314 34.775 120.684 34.985 120.944 35.275C121.204 35.565 121.464 35.99 121.724 36.55C122.004 37.15 122.279 37.59 122.549 37.87C122.829 38.15 123.149 38.29 123.509 38.29C123.829 38.29 124.134 38.185 124.424 37.975C124.714 37.755 125.079 37.385 125.519 36.865C125.639 36.725 125.774 36.655 125.924 36.655ZM115.814 35.275C115.474 35.275 115.239 35.195 115.109 35.035C114.989 34.875 114.929 34.695 114.929 34.495C114.929 34.255 115.004 34.065 115.154 33.925C115.314 33.785 115.494 33.715 115.694 33.715H116.069C116.229 32.735 116.379 31.89 116.519 31.18C116.649 30.53 117.069 30.205 117.779 30.205C118.349 30.205 118.634 30.46 118.634 30.97C118.634 31.08 118.629 31.165 118.619 31.225L118.169 33.715C118.709 33.685 119.199 33.555 119.639 33.325C120.089 33.095 120.444 32.775 120.704 32.365C120.974 31.955 121.109 31.49 121.109 30.97C121.109 30.34 120.894 29.845 120.464 29.485C120.034 29.125 119.404 28.945 118.574 28.945C117.594 28.945 116.734 29.19 115.994 29.68C115.264 30.16 114.694 30.88 114.284 31.84C113.874 32.79 113.669 33.95 113.669 35.32C113.669 35.96 113.734 36.51 113.864 36.97C113.994 37.43 114.154 37.775 114.344 38.005C114.534 38.235 114.714 38.35 114.884 38.35C115.014 38.35 115.119 38.285 115.199 38.155C115.289 38.025 115.359 37.815 115.409 37.525L115.814 35.275Z" fill="#0B96DB"/>
</svg>
