<svg width="64" height="65" viewBox="0 0 64 65" fill="none" xmlns="http://www.w3.org/2000/svg">
<path fill-rule="evenodd" clip-rule="evenodd" d="M32.8786 0.504495C39.9242 0.366729 46.5639 3.40257 51.9613 8.66251C57.9482 14.4968 64.3332 21.7535 63.9865 30.8199C63.6458 39.7277 55.9874 45.0526 50.3387 51.0932C45.0528 56.746 39.9988 62.9574 32.8786 64.0865C24.7513 65.3752 16.0688 63.7778 9.89531 57.5063C3.38288 50.8906 -0.809372 40.8076 0.131626 30.8199C1.0112 21.4841 8.10378 15.251 14.428 9.39642C19.8407 4.3857 25.9572 0.639834 32.8786 0.504495Z" fill="#DAEFFA"/>
<path d="M42 40V25M24.5 42.5H39.5M39.5 22.5H24.5M22 25V40" stroke="#0B96DB" stroke-width="2" stroke-linecap="round" stroke-linejoin="round"/>
<path d="M26.9988 30C26.6314 28.0391 27.9175 27.5744 31.9455 27.5M31.9455 27.5C35.6917 27.5842 37.2359 27.8817 36.8923 30M31.9455 27.5V37.5M30.0905 37.5H33.8006" stroke="#0B96DB" stroke-width="2" stroke-linecap="round" stroke-linejoin="round"/>
<path d="M43.25 20H40.75C40.0596 20 39.5 20.5596 39.5 21.25V23.75C39.5 24.4404 40.0596 25 40.75 25H43.25C43.9404 25 44.5 24.4404 44.5 23.75V21.25C44.5 20.5596 43.9404 20 43.25 20Z" stroke="#0B96DB" stroke-width="2"/>
<path d="M23.25 20H20.75C20.0596 20 19.5 20.5596 19.5 21.25V23.75C19.5 24.4404 20.0596 25 20.75 25H23.25C23.9404 25 24.5 24.4404 24.5 23.75V21.25C24.5 20.5596 23.9404 20 23.25 20Z" stroke="#0B96DB" stroke-width="2"/>
<path d="M43.25 40H40.75C40.0596 40 39.5 40.5596 39.5 41.25V43.75C39.5 44.4404 40.0596 45 40.75 45H43.25C43.9404 45 44.5 44.4404 44.5 43.75V41.25C44.5 40.5596 43.9404 40 43.25 40Z" stroke="#0B96DB" stroke-width="2"/>
<path d="M23.25 40H20.75C20.0596 40 19.5 40.5596 19.5 41.25V43.75C19.5 44.4404 20.0596 45 20.75 45H23.25C23.9404 45 24.5 44.4404 24.5 43.75V41.25C24.5 40.5596 23.9404 40 23.25 40Z" stroke="#0B96DB" stroke-width="2"/>
</svg>
