<svg width="20" height="20" viewBox="0 0 20 20" fill="none" xmlns="http://www.w3.org/2000/svg">
<g clip-path="url(#clip0_1_4557)">
<path d="M11.8848 2.99943C10.9963 2.11089 10.552 1.66663 9.99996 1.66663C9.44788 1.66663 9.00363 2.11089 8.11508 2.99943C7.58189 3.53263 7.05352 3.78018 6.29336 3.78018C5.62963 3.78018 4.68532 3.65144 4.16663 4.17449C3.65203 4.69341 3.78019 5.63383 3.78019 6.29334C3.78019 7.05353 3.53263 7.58189 2.99942 8.1151C2.11089 9.00363 1.66663 9.44788 1.66663 9.99996C1.66664 10.552 2.11091 10.9963 2.99944 11.8848C3.59676 12.4821 3.78019 12.8678 3.78019 13.7065C3.78019 14.3703 3.65147 15.3146 4.17453 15.8333C4.69344 16.3479 5.63386 16.2197 6.29334 16.2197C7.10287 16.2197 7.49269 16.378 8.07043 16.9558C8.56238 17.4478 9.22188 18.3333 9.99996 18.3333C10.778 18.3333 11.4375 17.4478 11.9295 16.9558C12.5072 16.378 12.897 16.2197 13.7065 16.2197C14.366 16.2197 15.3065 16.3479 15.8254 15.8333M15.8254 15.8333C16.3485 15.3146 16.2197 14.3703 16.2197 13.7065C16.2197 12.8678 16.4031 12.4821 17.0005 11.8848C17.889 10.9963 18.3333 10.552 18.3333 9.99996C18.3333 9.44788 17.889 9.00363 17.0005 8.1151M15.8254 15.8333H15.8333" stroke="#0B96DB" stroke-width="2" stroke-linecap="round" stroke-linejoin="round"/>
<path d="M7.08337 7.91667L10 10.8333L17.5002 2.5" stroke="#0B96DB" stroke-width="2" stroke-linecap="round" stroke-linejoin="round"/>
</g>
<defs>
<clipPath id="clip0_1_4557">
<rect width="20" height="20" fill="white"/>
</clipPath>
</defs>
</svg>
