<svg width="60" height="61" viewBox="0 0 60 61" fill="none" xmlns="http://www.w3.org/2000/svg">
<path fill-rule="evenodd" clip-rule="evenodd" d="M27.9842 0.514429C36.1216 0.78466 42.7308 5.96883 48.4671 11.4643C54.1753 16.9331 58.9463 23.2754 59.7459 30.9433C60.6314 39.4345 59.3933 48.7466 52.9771 54.7113C46.6048 60.6352 36.8945 60.5895 27.9842 60.4701C19.2463 60.3531 9.43862 60.3066 3.68571 54.051C-1.89545 47.9821 0.40332 38.9955 0.830368 30.9433C1.22432 23.5152 0.958606 15.7255 6.01906 10.0547C11.4333 3.98743 19.6216 0.23672 27.9842 0.514429Z" fill="#DAEFFA"/>
<path d="M35 30.5H30V23" stroke="#0B96DB" stroke-width="2" stroke-linecap="round" stroke-linejoin="round"/>
<path d="M42.5 30.5C42.5 37.4035 36.9035 43 30 43C23.0964 43 17.5 37.4035 17.5 30.5C17.5 23.5964 23.0964 18 30 18" stroke="#0B96DB" stroke-width="2" stroke-linecap="round" stroke-linejoin="round"/>
<path d="M38.5594 20.713C38.7771 20.9053 38.9889 21.1044 39.1944 21.31C39.3999 21.5156 39.5989 21.7275 39.791 21.9454M33.75 18C34.3526 18.1782 34.9435 18.4079 35.5168 18.6833M41.7969 24.9432C42.0809 25.5289 42.3174 26.1333 42.5 26.75" stroke="#0B96DB" stroke-width="2" stroke-linecap="round" stroke-linejoin="round"/>
</svg>
