<svg width="28" height="24" viewBox="0 0 28 24" fill="none" xmlns="http://www.w3.org/2000/svg">
<path d="M23.3333 0H4.66663C3.60576 0 2.58834 0.421427 1.8382 1.17157C1.08805 1.92172 0.666626 2.93913 0.666626 4V14.6667C0.666626 15.7275 1.08805 16.7449 1.8382 17.4951C2.58834 18.2452 3.60576 18.6667 4.66663 18.6667H12.6666V21.3333H7.33329C6.97967 21.3333 6.64053 21.4738 6.39048 21.7239C6.14044 21.9739 5.99996 22.313 5.99996 22.6667C5.99996 23.0203 6.14044 23.3594 6.39048 23.6095C6.64053 23.8595 6.97967 24 7.33329 24H20.6666C21.0202 24 21.3594 23.8595 21.6094 23.6095C21.8595 23.3594 22 23.0203 22 22.6667C22 22.313 21.8595 21.9739 21.6094 21.7239C21.3594 21.4738 21.0202 21.3333 20.6666 21.3333H15.3333V18.6667H23.3333C24.3942 18.6667 25.4116 18.2452 26.1617 17.4951C26.9119 16.7449 27.3333 15.7275 27.3333 14.6667V4C27.3333 2.93913 26.9119 1.92172 26.1617 1.17157C25.4116 0.421427 24.3942 0 23.3333 0ZM24.6666 14.6667C24.6666 15.0203 24.5261 15.3594 24.2761 15.6095C24.0261 15.8595 23.6869 16 23.3333 16H4.66663C4.313 16 3.97387 15.8595 3.72382 15.6095C3.47377 15.3594 3.33329 15.0203 3.33329 14.6667V4C3.33329 3.64638 3.47377 3.30724 3.72382 3.05719C3.97387 2.80714 4.313 2.66667 4.66663 2.66667H23.3333C23.6869 2.66667 24.0261 2.80714 24.2761 3.05719C24.5261 3.30724 24.6666 3.64638 24.6666 4V14.6667Z" fill="#0B96DB"/>
</svg>
