<svg width="64" height="65" viewBox="0 0 64 65" fill="none" xmlns="http://www.w3.org/2000/svg">
<path fill-rule="evenodd" clip-rule="evenodd" d="M29.8498 0.515391C38.5297 0.803637 45.5796 6.33342 51.6982 12.1953C57.787 18.0286 62.876 24.7937 63.729 32.9729C64.6735 42.0302 63.3528 51.963 56.5089 58.3254C49.7118 64.6442 39.3541 64.5955 29.8498 64.4681C20.5293 64.3433 10.0679 64.2937 3.93142 57.621C-2.02181 51.1476 0.430208 41.5619 0.885726 32.9729C1.30594 25.0495 1.02251 16.7405 6.42033 10.6917C12.1955 4.21992 20.9297 0.219168 29.8498 0.515391Z" fill="#DAEFFA"/>
<path d="M30.8511 34.44L27 26.75L33.7745 32.0995C34.7376 32.86 34.7426 34.309 33.7846 35.0759C32.8268 35.8429 31.3986 35.5333 30.8511 34.44Z" stroke="#0B96DB" stroke-width="2" stroke-linecap="round" stroke-linejoin="round"/>
<path d="M23.25 24.025C20.9358 26.2988 19.5 29.4673 19.5 32.972C19.5 39.8911 25.0964 45.5001 32 45.5001C38.9035 45.5001 44.5 39.8911 44.5 32.972C44.5 26.9053 40.1976 21.8457 34.484 20.6911C33.439 20.4799 32.9165 20.3743 32.4583 20.7503C32 21.1262 32 21.7339 32 22.9494V24.2022" stroke="#0B96DB" stroke-width="2" stroke-linecap="round" stroke-linejoin="round"/>
</svg>
