<svg width="64" height="65" viewBox="0 0 64 65" fill="none" xmlns="http://www.w3.org/2000/svg">
<path fill-rule="evenodd" clip-rule="evenodd" d="M32.8786 0.504495C39.9242 0.366729 46.5639 3.40257 51.9613 8.66251C57.9482 14.4968 64.3332 21.7535 63.9865 30.8199C63.6458 39.7277 55.9874 45.0526 50.3387 51.0932C45.0528 56.746 39.9988 62.9574 32.8786 64.0865C24.7513 65.3752 16.0688 63.7778 9.89531 57.5063C3.38288 50.8906 -0.809372 40.8076 0.131626 30.8199C1.0112 21.4841 8.10378 15.251 14.428 9.39642C19.8407 4.3857 25.9572 0.639834 32.8786 0.504495Z" fill="#DAEFFA"/>
<path d="M25.1724 20.4022C25.3708 19.866 26.1292 19.866 26.3276 20.4022L27.2169 22.8054C27.3416 23.1425 27.6075 23.4084 27.9446 23.5331L30.3479 24.4224C30.884 24.6208 30.884 25.3792 30.3479 25.5776L27.9446 26.4669C27.6075 26.5916 27.3416 26.8575 27.2169 27.1946L26.3276 29.5978C26.1292 30.134 25.3708 30.134 25.1724 29.5978L24.2831 27.1946C24.1584 26.8575 23.8925 26.5916 23.5554 26.4669L21.1522 25.5776C20.6159 25.3792 20.6159 24.6208 21.1522 24.4224L23.5554 23.5331C23.8925 23.4084 24.1584 23.1425 24.2831 22.8054L25.1724 20.4022Z" stroke="#0B96DB" stroke-width="2"/>
<path d="M35.0049 29.5517L36.8586 31.4055M24.5 45H26.372C27.8875 45 28.6452 45 29.3266 44.7178C30.0079 44.4355 30.5437 43.8998 31.6154 42.8281L41.8021 32.6414C42.476 31.9675 42.8129 31.6306 42.993 31.2671C43.3356 30.5756 43.3356 29.7637 42.993 29.0722C42.8129 28.7087 42.476 28.3718 41.8021 27.6979C41.1282 27.0241 40.7914 26.6871 40.4279 26.507C39.7364 26.1643 38.9244 26.1643 38.2329 26.507C37.8694 26.6871 37.5325 27.0241 36.8586 27.6979L26.6719 37.8846C25.6003 38.9563 25.0645 39.4921 24.7822 40.1735C24.5 40.8548 24.5 41.6125 24.5 43.128V45Z" stroke="#0B96DB" stroke-width="2" stroke-linecap="round" stroke-linejoin="round"/>
</svg>
