<svg width="60" height="61" viewBox="0 0 60 61" fill="none" xmlns="http://www.w3.org/2000/svg">
<path fill-rule="evenodd" clip-rule="evenodd" d="M27.9842 0.514429C36.1216 0.78466 42.7308 5.96883 48.4671 11.4643C54.1753 16.9331 58.9463 23.2754 59.7459 30.9433C60.6314 39.4345 59.3933 48.7466 52.9771 54.7113C46.6048 60.6352 36.8945 60.5895 27.9842 60.4701C19.2463 60.3531 9.43862 60.3066 3.68571 54.051C-1.89545 47.9821 0.40332 38.9955 0.830368 30.9433C1.22432 23.5152 0.958606 15.7255 6.01906 10.0547C11.4333 3.98743 19.6216 0.23672 27.9842 0.514429Z" fill="#DAEFFA"/>
<path d="M40 33.5V29.3211C40 28.2992 40 27.7882 39.8097 27.3288C39.6194 26.8694 39.2581 26.5081 38.5355 25.7855L32.6149 19.8649C31.9912 19.2413 31.6795 18.9294 31.2931 18.7447C31.2128 18.7062 31.1305 18.6722 31.0465 18.6425C30.6426 18.5 30.2018 18.5 29.3198 18.5C25.2635 18.5 23.2354 18.5 21.8617 19.6076C21.5841 19.8314 21.3313 20.0841 21.1076 20.3617C20 21.7354 20 23.7635 20 27.8198V33.5C20 38.214 20 40.5711 21.4645 42.0355C22.9289 43.5 25.286 43.5 30 43.5M31.25 19.125V19.75C31.25 23.2855 31.25 25.0533 32.3484 26.1516C33.4468 27.25 35.2145 27.25 38.75 27.25H39.375" stroke="#0B96DB" stroke-width="2" stroke-linecap="round" stroke-linejoin="round"/>
<path d="M36.25 43.5C37.0085 42.7627 40 40.8004 40 39.75C40 38.6996 37.0085 36.7373 36.25 36M38.75 39.75H30" stroke="#0B96DB" stroke-width="2" stroke-linecap="round" stroke-linejoin="round"/>
</svg>
