<svg width="64" height="65" viewBox="0 0 64 65" fill="none" xmlns="http://www.w3.org/2000/svg">
<path fill-rule="evenodd" clip-rule="evenodd" d="M35.2328 0.593165C44.4321 1.23688 52.5643 6.36607 58.2767 13.2389C63.3679 19.3642 64.3187 27.314 63.9186 35.106C63.5424 42.4316 61.3867 49.5596 56.1352 54.9409C50.672 60.5389 43.2731 64.5191 35.2328 64.4999C27.2092 64.4808 20.4403 59.8909 14.435 54.8416C7.90915 49.3547 1.35065 43.3163 0.273425 35.106C-0.923485 25.9835 1.8063 16.3848 8.51971 9.75719C15.3407 3.02327 25.4164 -0.0937244 35.2328 0.593165Z" fill="#DAEFFA"/>
<path d="M33.75 39.0623C33.75 37.8541 34.7294 36.8748 35.9375 36.8748H40.625V38.9998C40.625 40.2424 39.6176 41.2498 38.375 41.2498H35.9375C34.7294 41.2498 33.75 40.2704 33.75 39.0623Z" stroke="#0B96DB" stroke-width="2.5" stroke-linejoin="round"/>
<path d="M18.75 41.5624C18.75 40.3543 19.7294 39.3749 20.9375 39.3749H25V41.4999C25 42.7425 23.9926 43.7499 22.75 43.7499H20.9375C19.7294 43.7499 18.75 42.7705 18.75 41.5624Z" stroke="#0B96DB" stroke-width="2.5" stroke-linejoin="round"/>
<path d="M25 28.7774L40.625 25.078" stroke="#0B96DB" stroke-width="2.5" stroke-linecap="round" stroke-linejoin="round"/>
<path d="M25 41.2499V23.7499L40.625 19.9999V38.5576" stroke="#0B96DB" stroke-width="2.5" stroke-linecap="round" stroke-linejoin="round"/>
</svg>
