<svg width="116" height="20" viewBox="0 0 116 20" fill="none" xmlns="http://www.w3.org/2000/svg">
<path d="M7.62753 4.50675C8.68337 2.61341 9.21087 1.66675 10 1.66675C10.7892 1.66675 11.3167 2.61341 12.3725 4.50675L12.6459 4.99675C12.9459 5.53508 13.0959 5.80425 13.3292 5.98175C13.5625 6.15925 13.8542 6.22508 14.4375 6.35675L14.9675 6.47675C17.0175 6.94091 18.0417 7.17258 18.2859 7.95675C18.5292 8.74008 17.8309 9.55758 16.4334 11.1917L16.0717 11.6142C15.675 12.0784 15.4759 12.3109 15.3867 12.5976C15.2975 12.8851 15.3275 13.1951 15.3875 13.8142L15.4425 14.3784C15.6534 16.5592 15.7592 17.6492 15.1209 18.1334C14.4825 18.6176 13.5225 18.1759 11.6042 17.2926L11.1067 17.0642C10.5617 16.8126 10.2892 16.6876 10 16.6876C9.71087 16.6876 9.43837 16.8126 8.89337 17.0642L8.3967 17.2926C6.47753 18.1759 5.51753 18.6176 4.88003 18.1342C4.24087 17.6492 4.3467 16.5592 4.55753 14.3784L4.61253 13.8151C4.67253 13.1951 4.70253 12.8851 4.61253 12.5984C4.5242 12.3109 4.32503 12.0784 3.92837 11.6151L3.5667 11.1917C2.1692 9.55842 1.47087 8.74092 1.7142 7.95675C1.95753 7.17258 2.98337 6.94008 5.03337 6.47675L5.56337 6.35675C6.14587 6.22508 6.4367 6.15925 6.67087 5.98175C6.90503 5.80425 7.0542 5.53508 7.3542 4.99675L7.62753 4.50675Z" fill="#FFA20D"/>
<path d="M31.6275 4.50675C32.6834 2.61341 33.2109 1.66675 34 1.66675C34.7892 1.66675 35.3167 2.61341 36.3725 4.50675L36.6459 4.99675C36.9459 5.53508 37.0959 5.80425 37.3292 5.98175C37.5625 6.15925 37.8542 6.22508 38.4375 6.35675L38.9675 6.47675C41.0175 6.94091 42.0417 7.17258 42.2859 7.95675C42.5292 8.74008 41.8309 9.55758 40.4334 11.1917L40.0717 11.6142C39.675 12.0784 39.4759 12.3109 39.3867 12.5976C39.2975 12.8851 39.3275 13.1951 39.3875 13.8142L39.4425 14.3784C39.6534 16.5592 39.7592 17.6492 39.1209 18.1334C38.4825 18.6176 37.5225 18.1759 35.6042 17.2926L35.1067 17.0642C34.5617 16.8126 34.2892 16.6876 34 16.6876C33.7109 16.6876 33.4384 16.8126 32.8934 17.0642L32.3967 17.2926C30.4775 18.1759 29.5175 18.6176 28.88 18.1342C28.2409 17.6492 28.3467 16.5592 28.5575 14.3784L28.6125 13.8151C28.6725 13.1951 28.7025 12.8851 28.6125 12.5984C28.5242 12.3109 28.325 12.0784 27.9284 11.6151L27.5667 11.1917C26.1692 9.55842 25.4709 8.74092 25.7142 7.95675C25.9575 7.17258 26.9834 6.94008 29.0334 6.47675L29.5634 6.35675C30.1459 6.22508 30.4367 6.15925 30.6709 5.98175C30.905 5.80425 31.0542 5.53508 31.3542 4.99675L31.6275 4.50675Z" fill="#FFA20D"/>
<path d="M55.6275 4.50675C56.6834 2.61341 57.2109 1.66675 58 1.66675C58.7892 1.66675 59.3167 2.61341 60.3725 4.50675L60.6459 4.99675C60.9459 5.53508 61.0959 5.80425 61.3292 5.98175C61.5625 6.15925 61.8542 6.22508 62.4375 6.35675L62.9675 6.47675C65.0175 6.94091 66.0417 7.17258 66.2859 7.95675C66.5292 8.74008 65.8309 9.55758 64.4334 11.1917L64.0717 11.6142C63.675 12.0784 63.4759 12.3109 63.3867 12.5976C63.2975 12.8851 63.3275 13.1951 63.3875 13.8142L63.4425 14.3784C63.6534 16.5592 63.7592 17.6492 63.1209 18.1334C62.4825 18.6176 61.5225 18.1759 59.6042 17.2926L59.1067 17.0642C58.5617 16.8126 58.2892 16.6876 58 16.6876C57.7109 16.6876 57.4384 16.8126 56.8934 17.0642L56.3967 17.2926C54.4775 18.1759 53.5175 18.6176 52.88 18.1342C52.2409 17.6492 52.3467 16.5592 52.5575 14.3784L52.6125 13.8151C52.6725 13.1951 52.7025 12.8851 52.6125 12.5984C52.5242 12.3109 52.325 12.0784 51.9284 11.6151L51.5667 11.1917C50.1692 9.55842 49.4709 8.74092 49.7142 7.95675C49.9575 7.17258 50.9834 6.94008 53.0334 6.47675L53.5634 6.35675C54.1459 6.22508 54.4367 6.15925 54.6709 5.98175C54.905 5.80425 55.0542 5.53508 55.3542 4.99675L55.6275 4.50675Z" fill="#FFA20D"/>
<path d="M79.6275 4.50675C80.6834 2.61341 81.2109 1.66675 82 1.66675C82.7892 1.66675 83.3167 2.61341 84.3725 4.50675L84.6459 4.99675C84.9459 5.53508 85.0959 5.80425 85.3292 5.98175C85.5625 6.15925 85.8542 6.22508 86.4375 6.35675L86.9675 6.47675C89.0175 6.94091 90.0417 7.17258 90.2859 7.95675C90.5292 8.74008 89.8309 9.55758 88.4334 11.1917L88.0717 11.6142C87.675 12.0784 87.4759 12.3109 87.3867 12.5976C87.2975 12.8851 87.3275 13.1951 87.3875 13.8142L87.4425 14.3784C87.6534 16.5592 87.7592 17.6492 87.1209 18.1334C86.4825 18.6176 85.5225 18.1759 83.6042 17.2926L83.1067 17.0642C82.5617 16.8126 82.2892 16.6876 82 16.6876C81.7109 16.6876 81.4384 16.8126 80.8934 17.0642L80.3967 17.2926C78.4775 18.1759 77.5175 18.6176 76.88 18.1342C76.2409 17.6492 76.3467 16.5592 76.5575 14.3784L76.6125 13.8151C76.6725 13.1951 76.7025 12.8851 76.6125 12.5984C76.5242 12.3109 76.325 12.0784 75.9284 11.6151L75.5667 11.1917C74.1692 9.55842 73.4709 8.74092 73.7142 7.95675C73.9575 7.17258 74.9834 6.94008 77.0334 6.47675L77.5634 6.35675C78.1459 6.22508 78.4367 6.15925 78.6709 5.98175C78.905 5.80425 79.0542 5.53508 79.3542 4.99675L79.6275 4.50675Z" fill="#FFA20D"/>
<path d="M103.628 4.50675C104.683 2.61341 105.211 1.66675 106 1.66675C106.789 1.66675 107.317 2.61341 108.373 4.50675L108.646 4.99675C108.946 5.53508 109.096 5.80425 109.329 5.98175C109.563 6.15925 109.854 6.22508 110.438 6.35675L110.968 6.47675C113.018 6.94091 114.042 7.17258 114.286 7.95675C114.529 8.74008 113.831 9.55758 112.433 11.1917L112.072 11.6142C111.675 12.0784 111.476 12.3109 111.387 12.5976C111.298 12.8851 111.328 13.1951 111.388 13.8142L111.443 14.3784C111.653 16.5592 111.759 17.6492 111.121 18.1334C110.483 18.6176 109.523 18.1759 107.604 17.2926L107.107 17.0642C106.562 16.8126 106.289 16.6876 106 16.6876C105.711 16.6876 105.438 16.8126 104.893 17.0642L104.397 17.2926C102.478 18.1759 101.518 18.6176 100.88 18.1342C100.241 17.6492 100.347 16.5592 100.558 14.3784L100.613 13.8151C100.673 13.1951 100.703 12.8851 100.613 12.5984C100.524 12.3109 100.325 12.0784 99.9284 11.6151L99.5667 11.1917C98.1692 9.55842 97.4709 8.74092 97.7142 7.95675C97.9575 7.17258 98.9834 6.94008 101.033 6.47675L101.563 6.35675C102.146 6.22508 102.437 6.15925 102.671 5.98175C102.905 5.80425 103.054 5.53508 103.354 4.99675L103.628 4.50675Z" fill="#FFA20D"/>
</svg>
