<svg width="64" height="65" viewBox="0 0 64 65" fill="none" xmlns="http://www.w3.org/2000/svg">
<path fill-rule="evenodd" clip-rule="evenodd" d="M35.2328 0.593165C44.4321 1.23688 52.5643 6.36607 58.2767 13.2389C63.3679 19.3642 64.3187 27.314 63.9186 35.106C63.5424 42.4316 61.3867 49.5596 56.1352 54.9409C50.672 60.5389 43.2731 64.5191 35.2328 64.4999C27.2092 64.4808 20.4403 59.8909 14.435 54.8416C7.90915 49.3547 1.35065 43.3163 0.273425 35.106C-0.923485 25.9835 1.8063 16.3848 8.51971 9.75719C15.3407 3.02327 25.4164 -0.0937244 35.2328 0.593165Z" fill="#DAEFFA"/>
<path d="M37.6113 40.0338L42.6113 45.0113M30.5938 43.975L34.01 36.4813L41.9406 34.1563L35.8363 28.6063L36.0663 20.3794L28.8775 24.4438L21.09 21.6838L22.7506 29.7463L17.7075 36.2669L25.9231 37.1856L30.5938 43.975Z" stroke="#0B96DB" stroke-width="2.5" stroke-linecap="round" stroke-linejoin="round"/>
</svg>
