<svg width="41" height="40" viewBox="0 0 41 40" fill="none" xmlns="http://www.w3.org/2000/svg">
<path d="M35.5 21.6665V34.0565C35.5 34.3922 35.4323 34.7245 35.3011 35.0335C35.1699 35.3425 34.9778 35.622 34.7362 35.8551C34.4947 36.0883 34.2086 36.2704 33.8951 36.3906C33.5817 36.5108 33.2472 36.5667 32.9117 36.5548L32.69 36.5365L20.5 35.0131V21.6665H35.5ZM17.1667 21.6665V34.5965L8.42 33.5031C7.61367 33.4024 6.87193 33.0105 6.3342 32.4013C5.79648 31.7921 5.49982 31.0074 5.5 30.1948V21.6665H17.1667ZM32.69 3.46313C33.0231 3.42151 33.3612 3.44742 33.6841 3.5393C34.007 3.63118 34.3081 3.78715 34.5694 3.99791C34.8307 4.20867 35.0469 4.4699 35.2051 4.76602C35.3632 5.06214 35.4601 5.38708 35.49 5.72146L35.5 5.94313V18.3331H20.5V4.98646L32.69 3.46313ZM17.1667 5.40313V18.3331H5.5V9.8048C5.49982 8.9922 5.79648 8.20753 6.3342 7.59829C6.87193 6.98906 7.61367 6.59723 8.42 6.49646L17.1667 5.40313Z" fill="white"/>
</svg>
